<svg xmlns="http://www.w3.org/2000/svg" viewBox="0 0 48 48"><defs><linearGradient y1="545.8" x2="0" y2="517.8" gradientUnits="userSpaceOnUse"><stop stop-color="#3889e9"/><stop offset="1" stop-color="#5ea5fb"/></linearGradient><linearGradient id="0" x1="-324.94" y1="649.74" x2="-328.21" y2="307.75" gradientUnits="userSpaceOnUse"><stop stop-color="#016ed4"/><stop offset="1" stop-color="#00b1ff"/></linearGradient></defs><g transform="matrix(.10954 0 0 .10954 59.32-25.22)"><circle r="173.45" cy="478.75" cx="-325.89" transform="matrix(1.26319 0 0 1.26319 90.23-154.96)" fill="url(#0)"/><path d="m-357.83 495.58l10.997 39.613c.13.475.407.893.778 1.21l33.812 28.18c.441.363.981.555 1.536.555.242 0 .467-.035.701-.107.778-.24 1.378-.85 1.604-1.628l11.614-39.998c8.463.342 15.932-1.599 22.08-5.83l15.39 12.669c.976.799 2.397.718 3.271-.201l11.427-12.05c.441-.466.675-1.094.657-1.744 0-.645-.303-1.257-.778-1.693l-15.236-14c1.301-3.556 3.634-12.416 1.161-25.897l39.16-14.327c.761-.278 1.331-.923 1.514-1.714.19-.791 0-1.62-.605-2.21l-30.32-31.92c-.355-.372-.813-.62-1.318-.714l-39.937-7.155c-7.516-8.706-16.26-17.516-25.998-26.2-56.07-49.999-99.91-57.46-121.04-57.46-6.957 0-10.792.846-10.953.88-.951.214-1.676.983-1.843 1.945-.424 2.488-9.546 61.762 67.43 138.9.104.099 10.421 10.121 24.893 20.905zm3.639-43.12c-13.394 0-24.25-10.878-24.25-24.299 0-13.421 10.855-24.299 24.25-24.299 13.393 0 24.25 10.878 24.25 24.299 0 13.421-10.856 24.299-24.25 24.299m91.27 86.92c-.519-.513-1.275-.718-1.988-.543-.709.176-1.284.701-1.514 1.393l-5.516 16.417c-.268.786-.087 1.654.545 2.227l26.16 25.05c.398.381.925.594 1.476.594h22.05c.87 0 1.65-.53 1.979-1.334.32-.808.13-1.731-.493-2.338l-42.693-41.468m29.21-13.387c-.407-.423-.964-1.312-1.544-1.312h-.086c-.605 0-1.165.932-1.557 1.389l-9.482 11.643c-.727.842-.683 2.099.086 2.894l42.26 43.28c.398.41.951.641 1.522.641h6.987 2.133c1.177 0 2.133-.957 2.133-2.137v-10.232c0-.547-.216-1.402-.588-1.799l-41.899-44.36zm41.844 5.266l-30.536-29.825c-.709-.697-1.804-.804-2.628-.273l-12.502 7.933c-.554.35-.908.928-.976 1.573-.087.645.156 1.291.623 1.748l43.04 42.776c.407.406.956.62 1.506.62.277 0 .554-.052.822-.167.787-.329 1.305-1.107 1.305-1.97v-20.888c0-.573-.234-1.128-.64-1.526z" fill="#fff" fill-opacity=".852"/></g></svg>